<svg width="28" height="28" viewBox="0 0 28 28" fill="none" xmlns="http://www.w3.org/2000/svg">
<g clip-path="url(#clip0_606_56)">
<path d="M28.0041 21.7884C28.0041 20.4488 21.7544 19.3638 14.0487 19.3638C6.34125 19.3638 0.09375 20.4483 0.09375 21.7884C0.09375 23.1258 6.34169 24.2108 14.0487 24.2108C21.7544 24.2108 28.0041 23.1254 28.0041 21.7884Z" fill="#B0782C"/>
<path d="M24.5229 20.0952C24.5229 18.7556 20.0127 17.6724 14.4516 17.6724C8.89058 17.6724 4.38477 18.7561 4.38477 20.0952C4.38477 21.4344 8.89276 22.5199 14.4516 22.5199C20.0105 22.5199 24.5229 21.4344 24.5229 20.0952Z" fill="#825523"/>
<path d="M17.1934 2.42812C17.1934 3.77081 15.7842 4.858 14.0478 4.858C12.3078 4.858 10.9004 3.77125 10.9004 2.42812C10.9004 1.08719 12.3078 0 14.0478 0C15.7842 0 17.1934 1.08675 17.1934 2.42812Z" fill="#FBB042"/>
<path d="M13.5536 1.8655C13.5536 1.1585 13.8948 0.514062 14.4522 0.021C14.3184 0.00775792 14.1841 0.000750339 14.0497 0C12.3098 0 10.9023 1.08675 10.9023 2.42812C10.9023 3.77081 12.3098 4.858 14.0497 4.858C14.6889 4.858 15.2848 4.71012 15.7813 4.45725C14.4715 4.03025 13.5536 3.02881 13.5536 1.8655Z" fill="#E09732"/>
<path d="M15.1417 20.5427V17.9089C15.1417 17.4439 14.6543 17.0654 14.0497 17.0654C13.4438 17.0654 12.9542 17.4434 12.9542 17.9089V20.5427C11.7559 20.8857 10.9023 21.7738 10.9023 22.8172C10.9023 24.1599 12.3098 25.2471 14.0497 25.2471C15.7866 25.2471 17.1953 24.1604 17.1953 22.8172C17.1953 21.7742 16.3405 20.8857 15.1417 20.5427Z" fill="#FBB042"/>
<path d="M12.1422 22.8158C12.1422 21.7724 12.9975 20.8843 14.1941 20.5413V17.9075C14.1941 17.6201 14.384 17.3641 14.6679 17.2123C14.4771 17.113 14.2648 17.062 14.0497 17.064C13.4438 17.064 12.9542 17.442 12.9542 17.9075V20.5413C11.7559 20.8843 10.9023 21.7724 10.9023 22.8158C10.9023 24.1585 12.3098 25.2457 14.0497 25.2457C14.2623 25.2457 14.4697 25.23 14.6701 25.1989C13.2272 24.9775 12.1422 23.9953 12.1422 22.8158Z" fill="#E09732"/>
<path d="M14.049 19.6296C18.8352 19.6296 23.3021 20.0824 27.0834 20.8629C26.0697 19.7827 24.9777 17.6893 23.4342 12.718C20.3717 2.84755 17.6269 3.6298 17.6269 3.6298C17.2667 3.53324 16.903 3.45021 16.5366 3.38086C16.0173 3.2448 15.211 3.10392 14.1487 3.10917C14.1155 3.10742 14.0827 3.10742 14.0494 3.10742C14.0144 3.10742 13.9816 3.10742 13.9488 3.10917C12.8861 3.10392 12.0815 3.24523 11.5592 3.38086C11.2109 3.44867 10.85 3.52698 10.4707 3.6298C10.4707 3.6298 7.72886 2.84755 4.66373 12.7184C3.12023 17.6897 2.02561 19.784 1.01367 20.8647C4.79411 20.0824 9.26098 19.6296 14.049 19.6296Z" fill="#FBB042"/>
<path d="M10.6669 13.8717C11.2627 3.73042 14.1472 4.09836 14.1472 4.09836C14.4786 3.95226 14.815 3.81757 15.1556 3.69455C15.5164 3.54016 15.8885 3.41379 16.2686 3.31655C15.7546 3.20542 15.0458 3.10611 14.1507 3.10917C14.1174 3.10742 14.0846 3.10742 14.0514 3.10742C14.0164 3.10742 13.9836 3.10742 13.9507 3.10917C12.8881 3.10392 12.0835 3.24523 11.5611 3.38086C11.2129 3.44867 10.8519 3.52698 10.4726 3.6298C10.4726 3.6298 7.73081 2.84755 4.66569 12.7184C3.12219 17.6897 2.02756 19.784 1.01562 20.8647C3.70669 20.3073 6.74687 19.9223 10.0032 19.7429C10.2871 18.388 10.5116 16.5172 10.6669 13.8717Z" fill="#E09732"/>
</g>
<defs>
<clipPath id="clip0_606_56">
<rect width="28" height="28" fill="white"/>
</clipPath>
</defs>
</svg>
