<svg width="23" height="23" viewBox="0 0 23 23" fill="none" xmlns="http://www.w3.org/2000/svg">
<path d="M20.3599 1.45081C20.4881 1.45081 20.6161 1.45081 20.7379 1.48677C20.8592 1.51246 20.9767 1.54843 21.0886 1.59724C21.3126 1.69229 21.5112 1.83357 21.6807 2.00312C21.8511 2.17267 21.9911 2.37484 22.0863 2.60065C22.1797 2.82414 22.2356 3.07512 22.2356 3.33509V6.92024C22.2366 6.93821 22.2366 6.95622 22.2356 6.97419V20.3432C22.2356 21.377 21.3914 22.227 20.359 22.227H5.82883C5.75909 22.232 5.68906 22.2226 5.62312 22.1993C5.55718 22.176 5.49674 22.1394 5.44556 22.0916C5.39438 22.0439 5.35357 21.9862 5.32566 21.922C5.29775 21.8578 5.28335 21.7885 5.28335 21.7185C5.28335 21.6485 5.29775 21.5792 5.32566 21.515C5.35357 21.4508 5.39438 21.3931 5.44556 21.3453C5.49674 21.2976 5.55718 21.261 5.62312 21.2377C5.68906 21.2144 5.75909 21.205 5.82883 21.21H20.359C20.8448 21.21 21.2198 20.8306 21.2198 20.3432V6.91948C21.219 6.90321 21.219 6.88693 21.2198 6.87067V3.33561C21.2198 3.21487 21.1967 3.10184 21.152 2.99806C21.11 2.8953 21.0425 2.80282 20.9655 2.72447C20.8886 2.6474 20.7975 2.58575 20.6969 2.54208C20.6456 2.51639 20.5919 2.50354 20.5383 2.4907C20.4801 2.4907 20.4265 2.46501 20.3657 2.46501H1.92299C1.61911 2.46501 1.36189 2.61401 1.20774 2.84367C1.11436 2.98239 1.06075 3.145 1.06075 3.32713V6.91228V20.336C1.06075 20.8226 1.43577 21.2025 1.92177 21.2025H2.38165C2.45125 21.1978 2.52109 21.2074 2.58682 21.2308C2.65255 21.2543 2.71277 21.291 2.76375 21.3387C2.81473 21.3863 2.85538 21.444 2.88317 21.5081C2.91095 21.5722 2.92529 21.6413 2.92529 21.7112C2.92529 21.781 2.91095 21.8502 2.88317 21.9142C2.85538 21.9783 2.81473 22.036 2.76375 22.0837C2.71277 22.1314 2.65255 22.1681 2.58682 22.1915C2.52109 22.2149 2.45125 22.2246 2.38165 22.2198H1.92177C0.889126 22.2198 0.0451374 21.37 0.0451374 20.336V6.91228V3.32713C0.0451374 2.93897 0.161861 2.57342 0.36393 2.27337C0.70137 1.77244 1.27649 1.44336 1.92177 1.44336L20.3599 1.45081Z" fill="#9C9C9C"/>
<path d="M4.28972 21.2102C4.41992 21.2227 4.5403 21.285 4.62589 21.384C4.71148 21.4831 4.75571 21.6113 4.74941 21.7422C4.74311 21.873 4.68676 21.9964 4.59205 22.0868C4.49733 22.1771 4.37153 22.2275 4.24072 22.2274H3.93545C3.86585 22.2322 3.79601 22.2225 3.73028 22.1991C3.66455 22.1757 3.60433 22.139 3.55335 22.0913C3.50237 22.0436 3.46173 21.9859 3.43394 21.9219C3.40615 21.8578 3.39181 21.7887 3.39181 21.7188C3.39181 21.6489 3.40615 21.5798 3.43394 21.5157C3.46173 21.4517 3.50237 21.394 3.55335 21.3463C3.60433 21.2986 3.66455 21.2619 3.73028 21.2385C3.79601 21.2151 3.86585 21.2054 3.93545 21.2102H4.24072C4.25704 21.2094 4.2734 21.2094 4.28972 21.2102Z" fill="#9C9C9C"/>
<path d="M19.0523 9.50146C19.3646 9.50146 19.6309 9.76812 19.6309 10.0808V12.7265C19.6309 13.0391 19.3646 13.3057 19.0523 13.3057H16.4151C16.1029 13.3057 15.8365 13.0391 15.8365 12.7265V10.0808C15.8365 9.76812 16.1029 9.50146 16.4151 9.50146H19.0523ZM18.615 10.5234H16.8524V12.2838H18.615V10.5234Z" fill="#9C9C9C"/>
<path d="M12.4568 9.50146C12.7691 9.50146 13.0352 9.76812 13.0352 10.0808V12.7265C13.0352 13.0391 12.7691 13.3057 12.4568 13.3057H9.81944C9.5074 13.3057 9.24107 13.0391 9.24107 12.7265V10.0808C9.24107 9.76812 9.5074 9.50146 9.81944 9.50146H12.4568ZM12.0195 10.5234H10.2567V12.2838H12.0195V10.5234Z" fill="#9C9C9C"/>
<path d="M5.8611 9.50146C6.17315 9.50146 6.43945 9.76812 6.43945 10.0808V12.7265C6.43945 13.0391 6.17315 13.3057 5.8611 13.3057H3.22374C2.91146 13.3057 2.64072 13.0391 2.64072 12.7265V10.0808C2.64072 9.76812 2.91146 9.50146 3.22374 9.50146H5.8611ZM5.41918 10.5234H3.66099V12.2838H5.41918V10.5234Z" fill="#9C9C9C"/>
<path d="M19.0523 15.1938C19.3646 15.1938 19.6309 15.4602 19.6309 15.7731V18.4186C19.6309 18.7312 19.3646 18.9979 19.0523 18.9979H16.4151C16.1029 18.9979 15.8365 18.7312 15.8365 18.4186V15.7731C15.8365 15.4602 16.1029 15.1938 16.4151 15.1938H19.0523ZM18.615 16.2155H16.8524V17.9762H18.615V16.2155Z" fill="#9C9C9C"/>
<path d="M12.4568 15.1938C12.7691 15.1938 13.0352 15.4602 13.0352 15.7731V18.4186C13.0352 18.7312 12.7691 18.9979 12.4568 18.9979H9.81944C9.5074 18.9979 9.24107 18.7312 9.24107 18.4186V15.7731C9.24107 15.4602 9.5074 15.1938 9.81944 15.1938H12.4568ZM12.0195 16.2155H10.2567V17.9762H12.0195V16.2155Z" fill="#9C9C9C"/>
<path d="M5.8611 15.1938C6.17315 15.1938 6.43945 15.4602 6.43945 15.7731V18.4186C6.43945 18.7312 6.17315 18.9979 5.8611 18.9979H3.22374C2.91146 18.9979 2.64072 18.7312 2.64072 18.4186V15.7731C2.64072 15.4602 2.91146 15.1938 3.22374 15.1938H5.8611ZM5.41918 16.2155H3.66099V17.9762H5.41918V16.2155Z" fill="#9C9C9C"/>
<path d="M17.5855 3.17302e-05C17.6526 0.00106246 17.7188 0.0153562 17.7803 0.0420898C17.8419 0.0688234 17.8975 0.107469 17.9441 0.15581C17.9907 0.20415 18.0273 0.261231 18.0517 0.323771C18.0762 0.38631 18.0881 0.453075 18.0867 0.520232V3.2615C18.0915 3.3312 18.0818 3.40114 18.0584 3.46696C18.0351 3.53278 17.9984 3.59309 17.9508 3.64414C17.9032 3.69519 17.8456 3.73589 17.7816 3.76372C17.7176 3.79154 17.6486 3.8059 17.5788 3.8059C17.509 3.8059 17.44 3.79154 17.376 3.76372C17.312 3.73589 17.2544 3.69519 17.2068 3.64414C17.1592 3.59309 17.1225 3.53278 17.0991 3.46696C17.0757 3.40114 17.0661 3.3312 17.0709 3.2615V0.520232C17.0695 0.451941 17.0818 0.384067 17.1071 0.320638C17.1324 0.257209 17.1702 0.19952 17.2182 0.150998C17.2662 0.102475 17.3235 0.064107 17.3866 0.0381735C17.4497 0.0122399 17.5173 -0.000730284 17.5855 3.17302e-05Z" fill="#9C9C9C"/>
<path d="M14.365 3.20165e-05C14.432 0.0010964 14.4982 0.0154139 14.5597 0.0421625C14.6212 0.068911 14.6768 0.107563 14.7234 0.1559C14.7699 0.204237 14.8065 0.261305 14.8309 0.323828C14.8554 0.386351 14.8673 0.453097 14.8659 0.520232V3.2615C14.8709 3.33133 14.8614 3.40143 14.8382 3.46745C14.8149 3.53346 14.7783 3.59396 14.7307 3.64519C14.683 3.69642 14.6253 3.73728 14.5612 3.76522C14.4971 3.79315 14.428 3.80757 14.3581 3.80757C14.2882 3.80757 14.219 3.79315 14.1549 3.76522C14.0908 3.73728 14.0332 3.69642 13.9855 3.64519C13.9379 3.59396 13.9013 3.53346 13.878 3.46745C13.8547 3.40143 13.8453 3.33133 13.8503 3.2615V0.520232C13.8489 0.451938 13.8612 0.384063 13.8865 0.320632C13.9118 0.257202 13.9496 0.199512 13.9976 0.150989C14.0456 0.102466 14.1029 0.0640997 14.166 0.0381677C14.2291 0.0122357 14.2968 -0.000733498 14.365 3.20165e-05Z" fill="#9C9C9C"/>
<path d="M11.1443 3.20165e-05C11.2113 0.0010964 11.2775 0.0154139 11.339 0.0421625C11.4005 0.068911 11.4561 0.107563 11.5027 0.1559C11.5492 0.204237 11.5858 0.261305 11.6102 0.323828C11.6347 0.386351 11.6466 0.453097 11.6452 0.520232V3.2615C11.6502 3.33133 11.6407 3.40143 11.6175 3.46745C11.5942 3.53346 11.5576 3.59396 11.51 3.64519C11.4623 3.69642 11.4046 3.73728 11.3405 3.76522C11.2764 3.79315 11.2073 3.80757 11.1374 3.80757C11.0675 3.80757 10.9983 3.79315 10.9342 3.76522C10.8701 3.73728 10.8125 3.69642 10.7648 3.64519C10.7172 3.59396 10.6806 3.53346 10.6573 3.46745C10.634 3.40143 10.6246 3.33133 10.6296 3.2615V0.520232C10.6282 0.451938 10.6405 0.384063 10.6658 0.320632C10.6911 0.257202 10.7289 0.199512 10.7769 0.150989C10.8249 0.102466 10.8822 0.0640997 10.9453 0.0381677C11.0084 0.0122357 11.0761 -0.000733498 11.1443 3.20165e-05Z" fill="#9C9C9C"/>
<path d="M7.92449 0.000100723C7.99156 0.00113161 8.05776 0.0154252 8.1193 0.0421589C8.18083 0.0688925 8.23649 0.107538 8.28306 0.155879C8.32964 0.204219 8.36621 0.2613 8.39068 0.32384C8.41516 0.386379 8.42705 0.453144 8.42567 0.520301V3.26157C8.42572 3.32869 8.41256 3.39516 8.38694 3.45718C8.36133 3.5192 8.32376 3.57556 8.27638 3.62304C8.22901 3.67051 8.17275 3.70818 8.11083 3.73387C8.04892 3.75957 7.98255 3.77279 7.91553 3.77279C7.8485 3.77279 7.78214 3.75957 7.72022 3.73387C7.6583 3.70818 7.60205 3.67051 7.55467 3.62304C7.5073 3.57556 7.46973 3.5192 7.44411 3.45718C7.41849 3.39516 7.40533 3.32869 7.40538 3.26157V0.520301C7.40397 0.45163 7.41643 0.383384 7.44201 0.319655C7.4676 0.255927 7.50578 0.198033 7.55426 0.149448C7.60274 0.100863 7.66053 0.0625888 7.72415 0.036925C7.78777 0.0112611 7.85592 -0.00126451 7.92449 0.000100723Z" fill="#9C9C9C"/>
<path d="M4.70286 3.20165e-05C4.76991 0.0010964 4.83609 0.0154139 4.89759 0.0421625C4.9591 0.068911 5.01472 0.107563 5.06127 0.1559C5.10781 0.204237 5.14436 0.261305 5.16882 0.323828C5.19328 0.386351 5.20516 0.453097 5.20379 0.520232V3.2615C5.20876 3.33133 5.19932 3.40143 5.17605 3.46745C5.15278 3.53346 5.11619 3.59396 5.06855 3.64519C5.0209 3.69642 4.96323 3.73728 4.89914 3.76522C4.83504 3.79315 4.76588 3.80757 4.69597 3.80757C4.62607 3.80757 4.55691 3.79315 4.49281 3.76522C4.42871 3.73728 4.37104 3.69642 4.3234 3.64519C4.27576 3.59396 4.23916 3.53346 4.2159 3.46745C4.19263 3.40143 4.18318 3.33133 4.18816 3.2615V0.520232C4.18676 0.451938 4.19909 0.384063 4.2244 0.320632C4.24971 0.257202 4.2875 0.199512 4.33551 0.150989C4.38352 0.102466 4.44077 0.0640997 4.50388 0.0381677C4.56699 0.0122357 4.63465 -0.000733498 4.70286 3.20165e-05Z" fill="#9C9C9C"/>
<path d="M21.7805 6.41341C21.9106 6.42663 22.0307 6.48946 22.1158 6.5889C22.2008 6.68833 22.2445 6.81674 22.2376 6.9475C22.2307 7.07826 22.1738 7.20136 22.0787 7.29127C21.9837 7.38118 21.8577 7.43101 21.7269 7.43043H19.7001C19.6303 7.43543 19.5603 7.426 19.4944 7.40271C19.4284 7.37942 19.368 7.34278 19.3168 7.29507C19.2656 7.24736 19.2248 7.18961 19.1969 7.12541C19.169 7.06121 19.1546 6.99194 19.1546 6.92192C19.1546 6.8519 19.169 6.78263 19.1969 6.71843C19.2248 6.65423 19.2656 6.59648 19.3168 6.54877C19.368 6.50106 19.4284 6.46442 19.4944 6.44113C19.5603 6.41784 19.6303 6.40841 19.7001 6.41341H21.7269C21.7448 6.41247 21.7627 6.41247 21.7805 6.41341Z" fill="#9C9C9C"/>
<path d="M18.0011 6.41341C18.1314 6.42661 18.2516 6.4896 18.3368 6.58929C18.4219 6.68898 18.4654 6.81769 18.4582 6.94867C18.451 7.07965 18.3937 7.2028 18.2981 7.29253C18.2026 7.38226 18.0761 7.43165 17.9452 7.43043H17.4806C17.4109 7.43543 17.3408 7.426 17.2749 7.40271C17.209 7.37942 17.1485 7.34278 17.0973 7.29507C17.0462 7.24736 17.0053 7.18961 16.9774 7.12541C16.9495 7.06121 16.9351 6.99194 16.9351 6.92192C16.9351 6.8519 16.9495 6.78263 16.9774 6.71843C17.0053 6.65423 17.0462 6.59648 17.0973 6.54877C17.1485 6.50106 17.209 6.46442 17.2749 6.44113C17.3408 6.41784 17.4109 6.40841 17.4806 6.41341H17.9452C17.9638 6.41239 17.9825 6.41239 18.0011 6.41341Z" fill="#9C9C9C"/>
<path d="M15.8548 6.41341C15.9847 6.42662 16.1046 6.48929 16.1896 6.58847C16.2747 6.68765 16.3184 6.81577 16.3119 6.94634C16.3053 7.07691 16.2488 7.19996 16.1542 7.29005C16.0596 7.38015 15.9341 7.4304 15.8035 7.43043H0.544827C0.475084 7.43543 0.405063 7.426 0.339121 7.40271C0.27318 7.37942 0.212734 7.34278 0.161556 7.29507C0.110376 7.24736 0.0695629 7.18961 0.0416546 7.12541C0.0137463 7.06121 -0.000658035 6.99194 -0.000658035 6.92192C-0.000658035 6.8519 0.0137463 6.78263 0.0416546 6.71843C0.0695629 6.65423 0.110376 6.59648 0.161556 6.54877C0.212734 6.50106 0.27318 6.46442 0.339121 6.44113C0.405063 6.41784 0.475084 6.40841 0.544827 6.41341H15.8035C15.8206 6.41255 15.8377 6.41255 15.8548 6.41341Z" fill="#9C9C9C"/>
</svg>
