<svg width="48" height="31" viewBox="0 0 48 31" fill="none" xmlns="http://www.w3.org/2000/svg">
<path d="M24.7764 7.97186C21.8887 7.71633 18.5101 9.6029 17.356 12.3974C15.7528 16.1543 18.1236 20.7049 21.7268 21.9499C25.1002 23.1134 29.1525 20.8136 30.5519 17.6005C32.5572 12.9411 29.2726 8.55904 24.7764 7.97186C22.2751 7.64565 22.3012 11.7287 24.7764 12.0495C29.6642 12.6856 26.1133 19.96 22.2177 17.7636C20.7973 16.9589 20.2855 14.6265 21.3665 13.4141C21.8073 12.9461 22.3406 12.5836 22.9294 12.3517C23.5183 12.1199 24.1485 12.0241 24.7764 12.0712C27.2934 12.2778 27.2725 8.19477 24.7764 7.97186Z" fill="white"/>
<path d="M1.24683 16.9051C5.70793 25.5004 13.6703 30.7545 23.3778 30.9944C28.646 31.1361 33.647 28.5853 37.8409 25.6039C41.184 23.2276 44.6144 20.2625 46.774 16.7252C46.956 16.4114 47.0518 16.0551 47.0518 15.6924C47.0518 15.3297 46.956 14.9734 46.774 14.6595C41.9203 6.71287 33.2707 0.194201 23.7377 0.00343779C14.412 -0.181876 5.74065 7.15435 1.24683 14.8449C-0.0893178 17.1231 3.4283 19.2052 4.7808 16.9051C8.68563 10.2611 15.7699 4.25474 23.7377 4.09123C31.7055 3.92772 39.2643 10.212 43.24 16.7252V14.6595C41.4458 17.6028 38.5117 20.05 35.774 22.0775C32.1964 24.721 27.9262 26.9447 23.3778 26.9066C15.0991 26.8412 8.52747 22.0612 4.7808 14.8449C3.55918 12.5012 0.0361165 14.5723 1.24683 16.9051Z" fill="white"/>
</svg>
