<svg width="20" height="20" viewBox="0 0 20 20" fill="none" xmlns="http://www.w3.org/2000/svg">
<path d="M9.99837 20C8.17518 19.9997 6.38678 19.501 4.82654 18.5578C3.26631 17.6146 1.99362 16.2627 1.14611 14.6485C0.298606 13.0343 -0.0914702 11.2191 0.0180677 9.3992C0.127606 7.57931 0.732589 5.824 1.7676 4.32308C1.8233 4.23636 1.89588 4.16171 1.981 4.10358C2.06612 4.04546 2.16206 4.00503 2.26311 3.9847C2.36416 3.96438 2.46826 3.96457 2.56924 3.98526C2.67022 4.00596 2.76601 4.04674 2.85091 4.10517C2.93582 4.16361 3.00812 4.23852 3.06351 4.32545C3.11891 4.41238 3.15626 4.50955 3.17336 4.6112C3.19047 4.71284 3.18697 4.81689 3.16307 4.91716C3.13917 5.01743 3.09537 5.11187 3.03426 5.19487C1.83511 6.93277 1.32904 9.0562 1.61544 11.1481C1.90183 13.2401 2.96001 15.1494 4.58213 16.501C6.20426 17.8526 8.27312 18.549 10.3824 18.4533C12.4917 18.3575 14.489 17.4766 15.982 15.9836C17.475 14.4906 18.3559 12.4933 18.4516 10.384C18.5473 8.27476 17.851 6.2059 16.4994 4.58377C15.1477 2.96164 13.2384 1.90347 11.1465 1.61707C9.05456 1.33068 6.93113 1.83675 5.19324 3.0359C5.02515 3.14387 4.82165 3.18222 4.6258 3.14282C4.42994 3.10343 4.2571 2.98938 4.14383 2.82482C4.03057 2.66025 3.98577 2.45807 4.01892 2.26107C4.05207 2.06406 4.16056 1.88767 4.32144 1.76923C5.61197 0.87876 7.0938 0.304226 8.64729 0.0920157C10.2008 -0.120195 11.7824 0.0358661 13.2645 0.547598C14.7466 1.05933 16.0875 1.91239 17.1791 3.03791C18.2707 4.16343 19.0824 5.52986 19.5485 7.02689C20.0147 8.52392 20.1223 10.1096 19.8627 11.6559C19.6031 13.2021 18.9835 14.6657 18.054 15.9284C17.1244 17.1911 15.911 18.2175 14.5117 18.9248C13.1123 19.6321 11.5663 20.0004 9.99837 20Z" fill="white"/>
<path d="M9.99855 7.94876C9.59284 7.94876 9.19625 7.82845 8.85892 7.60305C8.52159 7.37766 8.25867 7.05729 8.10341 6.68247C7.94815 6.30764 7.90753 5.8952 7.98668 5.49729C8.06583 5.09938 8.2612 4.73388 8.54807 4.447C8.83495 4.16012 9.20045 3.96476 9.59836 3.88561C9.99627 3.80646 10.4087 3.84708 10.7835 4.00234C11.1584 4.15759 11.4787 4.42051 11.7041 4.75784C11.9295 5.09518 12.0498 5.49177 12.0498 5.89748C12.0498 6.44151 11.8337 6.96326 11.449 7.34795C11.0643 7.73264 10.5426 7.94876 9.99855 7.94876ZM9.99855 5.38465C9.89712 5.38465 9.79797 5.41473 9.71364 5.47108C9.62931 5.52743 9.56358 5.60752 9.52476 5.70123C9.48595 5.79493 9.4758 5.89804 9.49558 5.99752C9.51537 6.097 9.56421 6.18838 9.63593 6.26009C9.70765 6.33181 9.79903 6.38066 9.8985 6.40044C9.99798 6.42023 10.1011 6.41007 10.1948 6.37126C10.2885 6.33245 10.3686 6.26672 10.4249 6.18238C10.4813 6.09805 10.5114 5.9989 10.5114 5.89748C10.5114 5.76147 10.4573 5.63103 10.3612 5.53486C10.265 5.43868 10.1346 5.38465 9.99855 5.38465Z" fill="white"/>
<path d="M9.99855 16.1537C9.45451 16.1537 8.93276 15.9376 8.54807 15.5529C8.16338 15.1682 7.94727 14.6465 7.94727 14.1025V10.5127C7.94727 9.96867 8.16338 9.44692 8.54807 9.06223C8.93276 8.67754 9.45451 8.46143 9.99855 8.46143C10.5426 8.46143 11.0643 8.67754 11.449 9.06223C11.8337 9.44692 12.0498 9.96867 12.0498 10.5127V14.1025C12.0498 14.6465 11.8337 15.1682 11.449 15.5529C11.0643 15.9376 10.5426 16.1537 9.99855 16.1537ZM9.99855 9.99989C9.86254 9.99989 9.7321 10.0539 9.63593 10.1501C9.53976 10.2463 9.48573 10.3767 9.48573 10.5127V14.1025C9.48573 14.2385 9.53976 14.3689 9.63593 14.4651C9.7321 14.5612 9.86254 14.6153 9.99855 14.6153C10.1346 14.6153 10.265 14.5612 10.3612 14.4651C10.4573 14.3689 10.5114 14.2385 10.5114 14.1025V10.5127C10.5114 10.3767 10.4573 10.2463 10.3612 10.1501C10.265 10.0539 10.1346 9.99989 9.99855 9.99989Z" fill="white"/>
</svg>
