<svg width="45" height="44" viewBox="0 0 45 44" fill="none" xmlns="http://www.w3.org/2000/svg">
<path d="M24.55 0C17.2615 0 10.9295 3.96315 7.55859 9.79398C9.06186 9.83953 10.474 10.4773 11.4762 11.525C14.2094 7.15188 19.038 4.28202 24.5045 4.28202C33.0229 4.28202 39.9015 11.2061 39.9015 19.6791C39.9015 25.191 36.9861 30.0652 32.613 32.7529C33.3874 33.4817 33.934 34.3928 34.2073 35.395C34.2984 35.805 34.344 36.2605 34.3895 36.6705C40.2659 33.254 44.1835 26.9221 44.1835 19.6791C44.2746 8.83736 35.4373 0 24.55 0Z" fill="white"/>
<path d="M32.5675 13.8938C31.7475 13.0738 30.3809 13.0738 29.5154 13.8938L23.3201 20.089L20.4503 17.2192C19.6303 16.3992 18.2637 16.3992 17.3982 17.2192C16.5782 18.0391 16.5782 19.4057 17.3982 20.2713L21.8169 24.6899C22.2268 25.0999 22.7735 25.3277 23.3201 25.3277C23.8668 25.3277 24.4134 25.0999 24.8234 24.6899L32.5675 16.9459C33.3874 16.0803 33.3874 14.7593 32.5675 13.8938Z" fill="white"/>
<path d="M29.6975 35.0761L23.5934 31.9329C22.7278 31.4774 21.6801 31.7052 21.0879 32.4796L18.8558 35.3494C16.6692 34.165 15.0293 33.0718 13.1161 31.1585C11.0662 29.1086 9.9729 27.4231 8.87962 25.3277L11.7039 23.0956C12.4783 22.5034 12.7061 21.4556 12.2506 20.5901L9.10738 14.5315C8.56074 13.4838 7.19414 13.1194 6.19197 13.8027L2.31993 16.3992C1.40886 16.9914 0.907771 18.0391 0.998878 19.1324C1.08998 20.2257 1.22664 21.6378 1.45441 22.5945C2.59325 26.8765 5.32645 31.3863 9.10738 35.1672C12.9339 38.9481 17.3981 41.6813 21.7257 42.8202C22.6823 43.0935 24.0944 43.2302 25.1877 43.2757C26.281 43.3668 27.3287 42.8202 27.9209 41.9091L30.4264 37.9915C31.1097 36.9893 30.7452 35.6227 29.6975 35.0761Z" fill="white"/>
</svg>
