<svg width="34" height="26" viewBox="0 0 34 26" fill="none" xmlns="http://www.w3.org/2000/svg">
<path d="M17.6666 6.95703H16.1269V12.3125H10.7715V13.8521H16.1269V19.2076H17.6666V13.8521H23.022V12.3125H17.6666V6.95703Z" fill="#7039A9" stroke="#7039A9" stroke-width="0.5"/>
<path d="M20.7147 1H13.0832C6.42237 1 1 6.42237 1 13.0832C1 19.744 6.42237 25.1663 13.0832 25.1663H20.7481C27.4089 25.1663 32.8313 19.744 32.8313 13.0832C32.7978 6.42237 27.3755 1 20.7147 1ZM20.7147 23.6267H13.0832C7.25915 23.6267 2.53968 18.9072 2.53968 13.0832C2.53968 7.25915 7.25915 2.53968 13.0832 2.53968H20.7481C26.5721 2.53968 31.2916 7.25915 31.2916 13.0832C31.2581 18.9072 26.5387 23.6267 20.7147 23.6267Z" fill="#7039A9" stroke="#7039A9" stroke-width="0.5"/>
</svg>
