<svg width="36" height="36" viewBox="0 0 36 36" fill="none" xmlns="http://www.w3.org/2000/svg">
<path d="M31.0651 29.3315L31.6852 28.5723C31.8876 28.3066 32.1027 28.0409 32.2925 27.7625C32.4823 27.4841 32.6595 27.1804 32.8367 26.8894C33.0138 26.5983 33.3048 26.0922 33.52 25.624C33.7351 25.1558 33.9122 24.8268 34.0894 24.4219C34.2665 24.0169 34.2792 23.8904 34.3804 23.6373C34.4817 23.3843 34.6335 22.8781 34.7474 22.4858C34.8613 22.0936 34.8866 21.967 34.9498 21.7139C35.0131 21.4609 35.127 20.8282 35.2029 20.3853C35.2029 20.1575 35.2788 19.9424 35.3041 19.7146C35.383 19.051 35.4253 18.3836 35.4307 17.7153C35.4307 13.0169 33.5643 8.51097 30.242 5.1887C26.9197 1.86643 22.4137 0 17.7153 0C13.0169 0 8.51097 1.86643 5.1887 5.1887C1.86643 8.51097 0 13.0169 0 17.7153C0.00355231 18.4005 0.0457989 19.0849 0.126538 19.7653C0.126538 19.993 0.202461 20.2081 0.227769 20.4359C0.303692 20.8788 0.379615 21.3217 0.480845 21.7646C0.582076 22.2074 0.607383 22.2707 0.683306 22.5364C0.759229 22.8022 0.923729 23.3083 1.05027 23.6879C1.1768 24.0676 1.24007 24.2067 1.3413 24.4725C1.44254 24.7382 1.70827 25.2697 1.91073 25.6619C2.11319 26.0542 2.35361 26.4971 2.59403 26.9273C2.83446 27.3575 2.94834 27.5094 3.13815 27.7878C3.32795 28.0662 3.54307 28.3319 3.74553 28.5976L4.36557 29.3569C4.58068 29.5973 4.78314 29.8377 5.01091 30.0655C5.23868 30.2932 5.6436 30.6728 5.95995 30.9639C6.27629 31.2549 6.26364 31.2549 6.42814 31.3815C6.93737 31.803 7.46965 32.1959 8.02252 32.5583L8.17437 32.6595C8.97781 33.175 9.82459 33.6195 10.7051 33.9882L11.0594 34.14C11.4517 34.3045 11.8566 34.4437 12.2615 34.5829L12.5779 34.6841C13.084 34.836 13.5902 34.9625 14.0964 35.0764H14.4C14.8303 35.165 15.2605 35.2282 15.6654 35.2788H16.1083C16.6398 35.2788 17.1712 35.3548 17.7153 35.3548C18.2595 35.3548 18.7909 35.3548 19.3224 35.2788H19.7653C20.1955 35.2788 20.6384 35.165 21.0306 35.0764H21.3343C21.8405 34.9625 22.3466 34.836 22.8528 34.6841L23.1691 34.5829C23.5741 34.4437 23.979 34.3045 24.4345 34.14L24.7762 34.0008C25.6557 33.6251 26.5022 33.1764 27.3069 32.6595L27.4588 32.5583C28.0117 32.1959 28.5439 31.803 29.0532 31.3815L29.5087 30.9765C29.8377 30.6728 30.1667 30.3818 30.4704 30.0655L31.0651 29.3315ZM17.7153 2.53076C21.7425 2.53076 25.6048 4.13056 28.4525 6.97822C31.3001 9.82588 32.8999 13.6881 32.8999 17.7153C32.9002 18.3035 32.8622 18.891 32.786 19.4742C32.786 19.664 32.786 19.8538 32.6975 20.0436C32.6975 20.4233 32.5709 20.8029 32.4823 21.1825C32.3938 21.5621 32.3811 21.6254 32.3178 21.8405C32.2546 22.0556 32.1154 22.5111 31.9888 22.8401C31.8623 23.1691 31.837 23.283 31.7484 23.4981C31.6599 23.7133 31.4194 24.2194 31.2423 24.5737C31.0651 24.928 30.888 25.2317 30.6982 25.5481C30.5084 25.8644 30.3818 26.0795 30.2047 26.3326C30.0275 26.5857 29.8757 26.7881 29.6985 27.0032L29.1417 27.6865L28.6103 28.2686L27.7498 29.0911C27.6766 29.1433 27.6088 29.2026 27.5474 29.2683C27.008 27.0678 25.7461 25.1119 23.9636 23.7135C22.181 22.3151 19.9809 21.5551 17.7153 21.5551C15.4498 21.5551 13.2497 22.3151 11.4671 23.7135C9.68459 25.1119 8.42268 27.0678 7.88333 29.2683L7.68087 29.1038C7.37717 28.838 7.09879 28.5723 6.82041 28.2939C6.54202 28.0155 6.4661 27.8384 6.32691 27.6865L5.77014 27.0032C5.59299 26.7881 5.42849 26.5604 5.26399 26.3326C5.09949 26.1048 4.93499 25.8264 4.78314 25.5607C4.58058 25.2416 4.39474 24.9121 4.22638 24.5737C4.04922 24.2194 3.87207 23.8651 3.72022 23.4981C3.56838 23.1312 3.55572 23.0553 3.4798 22.8401C3.40388 22.625 3.25203 22.1821 3.1508 21.8405C3.04957 21.4988 3.03692 21.4103 2.9863 21.1825C2.93569 20.9547 2.8218 20.4233 2.77119 20.0436C2.77119 19.8538 2.77119 19.664 2.68261 19.4742C2.59378 18.8919 2.54306 18.3043 2.53076 17.7153C2.53076 13.6881 4.13056 9.82588 6.97822 6.97822C9.82588 4.13056 13.6881 2.53076 17.7153 2.53076ZM23.4475 31.7737C23.1059 31.9129 22.7516 32.0395 22.3973 32.1533L22.1442 32.2419C21.7139 32.3685 21.2837 32.4823 20.8788 32.5709H20.6384C20.2714 32.5709 19.9045 32.6975 19.5248 32.7354C19.3983 32.7354 19.2718 32.7354 19.1452 32.7354C18.2285 32.8367 17.3034 32.8367 16.3867 32.7354C16.2602 32.7354 16.1336 32.7354 16.0071 32.7354C15.6275 32.7354 15.2605 32.6342 14.8935 32.5709H14.6531C14.2102 32.4823 13.7674 32.3685 13.3877 32.2419L13.122 32.1533C12.7677 32.0352 12.426 31.9087 12.097 31.7737L11.7934 31.6472C11.2192 31.4243 10.6611 31.1622 10.1231 30.8627C10.3111 28.9897 11.1881 27.2535 12.584 25.9907C13.9799 24.7279 15.7951 24.0286 17.6774 24.0286C19.5597 24.0286 21.3749 24.7279 22.7708 25.9907C24.1667 27.2535 25.0437 28.9897 25.2317 30.8627C24.7387 31.1567 24.2272 31.4187 23.7006 31.6472L23.4475 31.7737ZM17.7153 20.2461C18.9667 20.2461 20.1899 19.875 21.2304 19.1798C22.2708 18.4846 23.0818 17.4965 23.5606 16.3404C24.0395 15.1843 24.1648 13.9122 23.9207 12.6849C23.6766 11.4576 23.074 10.3302 22.1891 9.4454C21.3043 8.56056 20.177 7.95798 18.9497 7.71386C17.7224 7.46973 16.4502 7.59503 15.2941 8.0739C14.1381 8.55276 13.1499 9.3637 12.4547 10.4042C11.7595 11.4446 11.3884 12.6679 11.3884 13.9192C11.3884 15.5972 12.055 17.2065 13.2415 18.393C14.4281 19.5795 16.0373 20.2461 17.7153 20.2461ZM17.7153 10.1231C18.4662 10.1231 19.2001 10.3457 19.8244 10.7628C20.4486 11.1799 20.9352 11.7728 21.2225 12.4665C21.5098 13.1601 21.585 13.9234 21.4385 14.6598C21.2921 15.3962 20.9305 16.0726 20.3996 16.6035C19.8687 17.1344 19.1923 17.4959 18.4559 17.6424C17.7196 17.7889 16.9563 17.7137 16.2626 17.4264C15.569 17.1391 14.9761 16.6525 14.559 16.0282C14.1418 15.4039 13.9192 14.67 13.9192 13.9192C13.9192 12.9124 14.3191 11.9468 15.0311 11.2349C15.743 10.523 16.7085 10.1231 17.7153 10.1231Z" fill="url(#paint0_linear_529_116)"/>
<defs>
<linearGradient id="paint0_linear_529_116" x1="17.7153" y1="0" x2="17.7153" y2="35.3548" gradientUnits="userSpaceOnUse">
<stop stop-color="#773DB2"/>
<stop offset="1" stop-color="#A862EC"/>
</linearGradient>
</defs>
</svg>
