<svg width="18" height="18" viewBox="0 0 18 18" fill="none" xmlns="http://www.w3.org/2000/svg">
<path d="M8.99958 0.421875C5.33119 0.421875 2.14085 2.96093 1.24276 6.59654C1.19809 6.77941 1.3061 6.96501 1.48412 7.01073C1.66147 7.0544 1.84349 6.9459 1.88883 6.76371C2.71225 3.43176 5.63656 1.10423 8.99958 1.10423C13.0433 1.10423 16.3337 4.47167 16.3337 8.61018C16.3337 12.7487 13.0433 16.1161 8.99958 16.1161C5.63656 16.1161 2.71225 13.7886 1.88883 10.4566C1.84349 10.2744 1.66147 10.1646 1.48412 10.2096C1.30543 10.256 1.19742 10.4416 1.24276 10.6238C2.14085 14.2594 5.33053 16.7985 8.99958 16.7985C13.4114 16.7985 17.0004 13.1253 17.0004 8.61018C17.0004 4.09501 13.4114 0.421875 8.99958 0.421875Z" fill="black" stroke="black" stroke-width="0.7"/>
<path d="M1.33337 8.95111H10.8004L9.48357 10.2988C9.35355 10.4318 9.35355 10.6481 9.48357 10.7812C9.54891 10.8481 9.63425 10.8808 9.71959 10.8808C9.80493 10.8808 9.89028 10.8474 9.95562 10.7812L11.8412 8.85148C11.8718 8.82009 11.8965 8.78188 11.9138 8.74026C11.9478 8.65701 11.9478 8.56284 11.9138 8.4796C11.8972 8.43729 11.8725 8.39976 11.8412 8.36837L9.95562 6.43866C9.8256 6.3056 9.61425 6.3056 9.48423 6.43866C9.35422 6.57172 9.35422 6.78803 9.48423 6.92109L10.801 8.26875H1.33337C1.14935 8.26875 1 8.4216 1 8.60993C1 8.79826 1.14935 8.95111 1.33337 8.95111Z" fill="black" stroke="black" stroke-width="0.7"/>
</svg>
