<svg width="10" height="20" viewBox="0 0 10 20" fill="none" xmlns="http://www.w3.org/2000/svg">
<path d="M9.99635 9.91636C9.97807 9.71107 9.89345 9.51675 9.75469 9.36136L1.77237 0.359544C1.68794 0.258189 1.58345 0.17443 1.46515 0.113282C1.34684 0.0521328 1.21712 0.0148365 1.08372 0.00360411C0.950321 -0.00762828 0.815968 0.00744739 0.688664 0.0479137C0.56136 0.0883819 0.443708 0.153434 0.342715 0.239175C0.241722 0.324916 0.159452 0.429603 0.100808 0.547002C0.0421636 0.664401 0.00834251 0.7921 0.0013597 0.922513C-0.00562311 1.05293 0.0143764 1.18338 0.0601642 1.3061C0.105952 1.42882 0.176593 1.54129 0.26788 1.63683L7.68116 10L0.267879 18.3632C0.176591 18.4587 0.10595 18.5712 0.0601627 18.6939C0.0143748 18.8166 -0.00562468 18.9471 0.00135811 19.0775C0.0083409 19.2079 0.042162 19.3356 0.100806 19.453C0.159451 19.5704 0.24172 19.6751 0.342713 19.7608C0.443707 19.8466 0.561358 19.9116 0.688663 19.9521C0.815967 19.9926 0.950319 20.0076 1.08372 19.9964C1.21712 19.9852 1.34683 19.9479 1.46514 19.8867C1.58345 19.8256 1.68794 19.7418 1.77237 19.6405L9.75469 10.6386C9.84257 10.5402 9.90925 10.4255 9.95077 10.3014C9.99228 10.1774 10.0078 10.0464 9.99635 9.91636Z" fill="#9C9C9C"/>
</svg>
