<svg width="58" height="58" viewBox="0 0 58 58" fill="none" xmlns="http://www.w3.org/2000/svg">
<path d="M1.93333 57.7449H5.66667C6.18187 57.7449 6.6 57.317 6.6 56.7897V53.9241H34.6V56.7897C34.6 57.317 35.0181 57.7449 35.5333 57.7449H39.2667C39.7819 57.7449 40.2 57.317 40.2 56.7897V47.2377V41.5065C40.2 39.2006 38.5937 37.2711 36.4667 36.827V28.1337C36.4667 26.5538 35.2104 25.2681 33.6667 25.2681H7.53333C5.9896 25.2681 4.73333 26.5538 4.73333 28.1337V36.827C2.60627 37.2711 1 39.2006 1 41.5065V47.2377V56.7897C1 57.317 1.41813 57.7449 1.93333 57.7449ZM38.3333 55.8345H36.4667V52.9689C36.4667 52.4416 36.0485 52.0137 35.5333 52.0137H5.66667C5.15147 52.0137 4.73333 52.4416 4.73333 52.9689V55.8345H2.86667V48.1929H38.3333V55.8345ZM6.6 28.1337C6.6 27.6074 7.01907 27.1785 7.53333 27.1785H33.6667C34.1809 27.1785 34.6 27.6074 34.6 28.1337V36.7305H32.7333V32.9097C32.7333 31.3298 31.4771 30.0441 29.9333 30.0441H24.3333C22.7896 30.0441 21.5333 31.3298 21.5333 32.9097V36.7305H19.6667V32.9097C19.6667 31.3298 18.4104 30.0441 16.8667 30.0441H11.2667C9.72293 30.0441 8.46667 31.3298 8.46667 32.9097V36.7305H6.6V28.1337ZM30.8667 36.7305H23.4V32.9097C23.4 32.3834 23.8191 31.9545 24.3333 31.9545H29.9333C30.4476 31.9545 30.8667 32.3834 30.8667 32.9097V36.7305ZM17.8 36.7305H10.3333V32.9097C10.3333 32.3834 10.7524 31.9545 11.2667 31.9545H16.8667C17.3809 31.9545 17.8 32.3834 17.8 32.9097V36.7305ZM2.86667 41.5065C2.86667 39.9266 4.12293 38.6409 5.66667 38.6409H9.4H18.7333H22.4667H31.8H35.5333C37.0771 38.6409 38.3333 39.9266 38.3333 41.5065V46.2825H2.86667V41.5065Z" fill="black" stroke="black" stroke-width="0.4"/>
<path d="M56.0664 36.7305H42.9997C42.4845 36.7305 42.0664 37.1584 42.0664 37.6857V45.3273V52.0137H43.9331V46.2825H55.1331V52.0137H56.9997V45.3273V37.6857C56.9997 37.1584 56.5816 36.7305 56.0664 36.7305ZM43.9331 44.3721V38.6409H55.1331V44.3721H43.9331Z" fill="black" stroke="black" stroke-width="0.4"/>
<path d="M51.3993 40.5518H47.666V42.4622H51.3993V40.5518Z" fill="black" stroke="black" stroke-width="0.4"/>
<path d="M53.2675 30.0444C53.5671 30.0444 53.849 29.8973 54.0244 29.6471C54.1999 29.3978 54.2475 29.0778 54.1532 28.7864L52.2866 23.0552C52.1587 22.6655 51.8031 22.4028 51.4008 22.4028H47.6675C47.2652 22.4028 46.9096 22.6655 46.7818 23.0562L44.9151 28.7874C44.8199 29.0787 44.8684 29.3987 45.0439 29.648C45.2194 29.8973 45.5012 30.0444 45.8008 30.0444H48.6008V32.91H46.7342V34.8204H52.3342V32.91H50.4675V30.0444H53.2675ZM48.3404 24.3132H50.7288L51.973 28.134H47.0954L48.3404 24.3132Z" fill="black" stroke="black" stroke-width="0.4"/>
<path d="M56.4484 12.9338L29.3817 0.516208C29.1381 0.405405 28.8609 0.405405 28.6183 0.516208L1.5516 12.9338C1.2156 13.0886 1 13.4296 1 13.8059V25.2683H2.86667V14.4239L29 2.43521L55.1333 14.4249V25.2683H57V13.8059C57 13.4296 56.7844 13.0886 56.4484 12.9338Z" fill="black" stroke="black" stroke-width="0.4"/>
<path d="M22.4668 14.7611C22.4668 18.4482 25.3975 21.4475 29.0001 21.4475C32.6028 21.4475 35.5335 18.4482 35.5335 14.7611C35.5335 14.3867 35.5027 14.0122 35.4429 13.6473L33.6015 13.9645C33.6453 14.2252 33.6668 14.4927 33.6668 14.7611C33.6668 17.3946 31.5733 19.5371 29.0001 19.5371C26.4269 19.5371 24.3335 17.3946 24.3335 14.7611C24.3335 12.1276 26.4269 9.98511 29.0001 9.98511C29.534 9.98511 30.0585 10.0768 30.5569 10.2573L31.1785 8.45583C30.4795 8.2027 29.7468 8.07471 29.0001 8.07471C25.3975 8.07471 22.4668 11.074 22.4668 14.7611Z" fill="black" stroke="black" stroke-width="0.4"/>
<path d="M27.7924 13.1305L26.4727 14.4811L28.3393 16.3916C28.5213 16.5778 28.7603 16.6714 28.9992 16.6714C29.2381 16.6714 29.4771 16.5778 29.6591 16.3916L36.1924 9.70515L34.8727 8.35449L28.9992 14.3656L27.7924 13.1305Z" fill="black" stroke="black" stroke-width="0.4"/>
</svg>
