<svg width="49" height="31" viewBox="0 0 49 31" fill="none" xmlns="http://www.w3.org/2000/svg">
<path d="M18.7975 23.0606C17.0266 23.5996 16.0256 25.1396 16.1796 26.9876C16.4106 28.7585 17.7965 30.1445 19.6445 30.2985C20.7995 30.3755 21.7235 29.9905 22.7245 28.9895C24.9574 26.7566 31.1943 20.9047 33.2733 18.9797C33.4273 18.8257 33.2733 18.5947 33.0423 18.5947C30.1163 19.4417 20.9535 22.4447 18.7975 23.0606Z" fill="white"/>
<path d="M44.8987 11.5109C44.5137 10.8179 44.0517 10.2019 43.5127 9.50891C40.0478 4.88899 34.8889 1.57805 28.806 0.423069C15.7162 -2.04089 3.08847 6.50596 0.624511 19.5957C0.0085222 22.7527 0.0855207 25.9866 0.70151 29.1436L0.932506 30.2985L4.55144 29.5285L4.39744 28.4506C3.93545 25.2166 4.39744 21.9057 5.55242 18.8257C6.7074 15.8998 8.47837 13.2818 10.8653 11.2029C11.9433 10.2789 13.1753 9.43191 14.6383 8.73892C15.9472 8.12293 17.3332 7.58394 18.7962 7.27594C20.1822 6.96795 21.6451 6.81395 23.0311 6.89095C24.4171 6.96795 25.8031 7.19895 27.189 7.50694C29.807 8.27693 32.1939 9.6629 34.1189 11.5109C34.9659 12.3579 35.7359 13.2818 36.3519 14.2828L37.5068 16.3618C37.7378 16.9008 37.9688 17.4398 38.1228 17.9788C38.5078 19.1337 38.6618 20.3657 38.7388 21.5977C38.8158 22.7527 38.7388 23.9846 38.5078 25.1396C38.3538 25.7556 38.1998 26.4486 37.9688 27.0646L37.5068 28.3736L47.5937 30.2985L47.8247 29.1436C47.8247 28.9896 47.9017 28.8356 47.9017 28.6816C49.2106 22.4447 47.9017 16.4388 44.8987 11.5109ZM40.6638 26.4486C40.7408 26.1406 40.8178 25.8326 40.8948 25.5246C41.1258 24.1386 41.2798 22.7527 41.2028 21.3667C41.1258 19.9037 40.8948 18.5177 40.4328 17.2088C40.2018 16.4388 39.8938 15.7458 39.5858 14.9758L42.9738 12.7428C45.5917 16.9778 46.6697 22.1367 45.8997 27.3726L40.6638 26.4486Z" fill="white"/>
</svg>
