<svg width="21" height="21" viewBox="0 0 21 21" fill="none" xmlns="http://www.w3.org/2000/svg">
<path d="M0 10.5C0 16.2993 4.7007 21 10.5 21C16.2993 21 21 16.2993 21 10.5C21 4.7007 16.2993 0 10.5 0C4.7007 0 0 4.7007 0 10.5ZM10.6993 3.66528C10.7625 3.68958 10.8208 3.72847 10.8694 3.78194L15.1035 8.01597C15.2056 8.11806 15.259 8.24931 15.259 8.39028C15.259 8.53125 15.2056 8.6625 15.1035 8.76458C15.0014 8.86667 14.8701 8.92014 14.7292 8.92014C14.5882 8.92014 14.4569 8.86667 14.3549 8.76458L11.025 5.43472V16.8535C11.025 17.1451 10.7868 17.3833 10.4951 17.3833C10.2035 17.3833 9.96528 17.1451 9.96528 16.8535V5.42986L6.63542 8.75972C6.53333 8.86181 6.40208 8.91528 6.26111 8.91528C6.12014 8.91528 5.98889 8.86181 5.88681 8.75972C5.6875 8.56042 5.6875 8.21042 5.88681 8.01111L10.1208 3.77708C10.1694 3.72847 10.2278 3.68958 10.291 3.66042C10.4222 3.61181 10.5729 3.61181 10.6993 3.66528Z" fill="#3DAD3B"/>
</svg>
