<svg width="22" height="22" viewBox="0 0 22 22" fill="none" xmlns="http://www.w3.org/2000/svg">
<path d="M11 1C9.02219 1 7.08879 1.58649 5.4443 2.6853C3.79981 3.78412 2.51809 5.3459 1.76121 7.17316C1.00433 9.00043 0.8063 11.0111 1.19215 12.9509C1.578 14.8907 2.53041 16.6725 3.92894 18.0711C5.32746 19.4696 7.10929 20.422 9.0491 20.8078C10.9889 21.1937 12.9996 20.9957 14.8268 20.2388C16.6541 19.4819 18.2159 18.2002 19.3147 16.5557C20.4135 14.9112 21 12.9778 21 11C20.997 8.34875 19.9425 5.80695 18.0678 3.93223C16.1931 2.05751 13.6512 1.00299 11 1ZM2.11112 11C2.10981 9.2892 2.60261 7.61443 3.53028 6.17698C4.45794 4.73953 5.78099 3.60057 7.34042 2.897C8.89984 2.19343 10.6293 1.95518 12.3209 2.21089C14.0124 2.4666 15.5942 3.20539 16.876 4.33846L4.33846 16.8759C2.90225 15.2557 2.10981 13.1652 2.11112 11ZM11 19.8889C8.83484 19.8902 6.74431 19.0977 5.12405 17.6615L17.6615 5.12405C18.7946 6.40583 19.5334 7.98757 19.7891 9.67915C20.0448 11.3707 19.8066 13.1002 19.103 14.6596C18.3994 16.219 17.2605 17.5421 15.823 18.4697C14.3856 19.3974 12.7108 19.8902 11 19.8889Z" fill="#DC5644" stroke="#DC5644" stroke-width="2"/>
</svg>
