<svg width="41" height="49" viewBox="0 0 41 49" fill="none" xmlns="http://www.w3.org/2000/svg">
<path d="M20.9576 48.2817C15.3937 48.2817 10.026 45.9204 6.23157 41.8032C5.87854 41.4204 5.87854 40.8306 6.23157 40.4478C10.025 36.3306 15.3927 33.9692 20.9576 33.9692C26.5221 33.9692 31.8898 36.3306 35.6837 40.4478C36.0367 40.8306 36.0367 41.4204 35.6837 41.8032C31.8888 45.9204 26.5211 48.2817 20.9576 48.2817ZM8.36047 41.1255C11.7247 44.4136 16.2643 46.2817 20.9576 46.2817C25.6505 46.2817 30.1901 44.4136 33.5548 41.1255C30.1906 37.8374 25.6515 35.9692 20.9576 35.9692C16.2633 35.9692 11.7242 37.8374 8.36047 41.1255Z" fill="white"/>
<path d="M19.7773 29.2603C19.7769 29.2603 19.7764 29.2603 19.7764 29.2603L1.91504 29.2397C1.36279 29.2388 0.915528 28.7905 0.916016 28.2388C0.916504 27.687 1.36426 27.2397 1.91602 27.2397C1.9165 27.2397 1.91699 27.2397 1.91699 27.2397L19.7783 27.2603C20.3306 27.2612 20.7778 27.7095 20.7773 28.2612C20.7769 28.813 20.3291 29.2603 19.7773 29.2603Z" fill="white"/>
<path d="M22.127 29.2817C21.5757 29.2817 21.1284 28.8354 21.127 28.2837C21.1255 27.7319 21.5723 27.2827 22.1245 27.2817L39.9971 27.2397C39.9981 27.2397 39.999 27.2397 39.9995 27.2397C40.5508 27.2397 40.9981 27.686 40.9995 28.2378C41.001 28.7896 40.5542 29.2388 40.002 29.2397L22.1294 29.2817C22.1284 29.2817 22.1279 29.2817 22.127 29.2817Z" fill="white"/>
<path d="M20.959 48.2817C20.4067 48.2817 19.959 47.8345 19.959 47.2817V29.9897C19.959 29.437 20.4067 28.9897 20.959 28.9897C21.5112 28.9897 21.959 29.437 21.959 29.9897V47.2817C21.959 47.8345 21.5112 48.2817 20.959 48.2817Z" fill="white"/>
<path d="M20.957 31.3306C20.6025 31.3306 20.2744 31.1431 20.0947 30.8374C19.167 29.2573 11.0332 15.2593 11.0332 10.2056C11.0332 4.73389 15.4849 0.281738 20.957 0.281738C26.4292 0.281738 30.8809 4.73389 30.8809 10.2056C30.8809 15.2593 22.7471 29.2573 21.8193 30.8374C21.6396 31.1431 21.3115 31.3306 20.957 31.3306ZM20.957 2.28174C16.5879 2.28174 13.0332 5.83643 13.0332 10.2056C13.0332 13.6323 18.1431 23.3608 20.957 28.3267C23.771 23.3608 28.8809 13.6323 28.8809 10.2056C28.8809 5.83643 25.3262 2.28174 20.957 2.28174Z" fill="white"/>
<path d="M20.958 48.2808C9.90674 48.2808 0.916016 39.2905 0.916016 28.2397C0.916016 23.2124 2.80371 18.395 6.23193 14.6753C6.42139 14.4702 6.68799 14.353 6.96729 14.353C7.24658 14.353 7.51318 14.4702 7.70264 14.6753C9.96387 17.1294 12.8687 18.9077 16.103 19.8179C16.377 19.895 16.605 20.0854 16.73 20.3403C18.2866 23.5161 19.9697 26.5698 20.958 28.3188C21.9458 26.5698 23.6294 23.5161 25.186 20.3403C25.311 20.0854 25.5391 19.895 25.813 19.8179C29.0469 18.9077 31.9517 17.1294 34.2134 14.6753C34.5923 14.2651 35.3052 14.2651 35.6841 14.6753C39.1123 18.396 41 23.2134 41 28.2397C41 39.2905 32.0093 48.2808 20.958 48.2808ZM7.00879 16.8286C4.3623 20.0542 2.91602 24.0669 2.91602 28.2397C2.91602 38.188 11.0098 46.2808 20.958 46.2808C30.9062 46.2808 39 38.188 39 28.2397C39 24.0679 37.5537 20.0552 34.9067 16.8286C32.6274 19.0405 29.8472 20.6812 26.7871 21.6167C24.4204 26.3979 21.8467 30.7915 21.8203 30.8364C21.4614 31.4487 20.4546 31.4497 20.0957 30.8364C20.0693 30.7915 17.4951 26.3979 15.1289 21.6167C12.0684 20.6812 9.28809 19.0405 7.00879 16.8286Z" fill="white"/>
<path d="M20.9575 48.2809C15.6509 48.2809 11.4941 39.4772 11.4941 28.2389C11.4941 24.112 12.0698 20.1462 13.1597 16.7692C13.2876 16.3727 13.6475 16.0973 14.063 16.0768C14.4731 16.0534 14.8633 16.2965 15.0288 16.6784C16.8965 20.9889 19.5918 25.902 20.9575 28.319C22.3232 25.902 25.019 20.9879 26.8857 16.6784C27.0508 16.2956 27.4507 16.0426 27.8516 16.0768C28.2671 16.0973 28.627 16.3727 28.7549 16.7692C29.8447 20.1462 30.4204 24.112 30.4204 28.2389C30.4204 39.4772 26.2637 48.2809 20.9575 48.2809ZM14.3521 20.0163C13.7876 22.5592 13.4941 25.3542 13.4941 28.2389C13.4941 39.0309 17.353 46.2809 20.9575 46.2809C24.5615 46.2809 28.4204 39.0309 28.4204 28.2389C28.4204 25.3542 28.1265 22.5592 27.5625 20.0163C25.0088 25.3932 21.8564 30.7751 21.8198 30.8376C21.4604 31.4489 20.4546 31.4489 20.0952 30.8376C20.0586 30.7751 16.9058 25.3932 14.3521 20.0163Z" fill="white"/>
<path d="M20.958 48.281C9.90674 48.281 0.916016 39.2908 0.916016 28.24C0.916016 20.7566 5.04639 13.9499 11.6953 10.4753C11.9756 10.3288 12.3101 10.322 12.5967 10.4636C12.8823 10.6023 13.0845 10.8689 13.1416 11.1814C13.9536 15.6052 18.9268 24.7214 20.958 28.3191C22.9893 24.7214 27.9619 15.6033 28.7744 11.1824C28.8315 10.8699 29.0342 10.6033 29.3193 10.4646C29.6055 10.323 29.9399 10.3298 30.2207 10.4763C36.8696 13.9509 41 20.7576 41 28.24C41 39.2908 32.0093 48.281 20.958 48.281ZM11.4951 12.8884C6.17188 16.1667 2.91602 21.9363 2.91602 28.24C2.91602 38.1882 11.0098 46.281 20.958 46.281C30.9062 46.281 39 38.1882 39 28.24C39 21.9372 35.7441 16.1677 30.4209 12.8894C28.6328 19.1941 22.1172 30.3318 21.8203 30.8367C21.4609 31.4499 20.4551 31.4499 20.0957 30.8367C19.7988 30.3318 13.2827 19.1931 11.4951 12.8884Z" fill="white"/>
<path d="M26.0838 21.7808C25.7918 21.7808 25.5086 21.6528 25.3158 21.4214C25.0633 21.1177 25.0125 20.6948 25.1859 20.3403C27.1722 16.2876 28.4115 13.1275 28.7699 11.2036C28.828 10.8911 29.0311 10.6245 29.3167 10.4859C29.6034 10.3482 29.9373 10.353 30.2186 10.5015C32.3035 11.5982 34.1424 13.0025 35.6839 14.6753C36.0369 15.0581 36.0369 15.648 35.6839 16.0308C33.1712 18.7573 29.9451 20.7329 26.3548 21.7437C26.265 21.7691 26.1742 21.7808 26.0838 21.7808ZM30.4134 12.9136C29.9549 14.5259 29.1536 16.5757 28.0184 19.0415C30.0775 18.1646 31.9544 16.9165 33.5545 15.354C32.6121 14.4361 31.5609 13.6196 30.4134 12.9136Z" fill="white"/>
<path d="M15.8317 21.7808C15.7413 21.7808 15.6505 21.7691 15.5607 21.7437C11.9698 20.7329 8.74377 18.7573 6.23157 16.0308C5.87854 15.648 5.87854 15.0581 6.23157 14.6753C7.77405 13.0015 9.61292 11.5972 11.6974 10.5015C11.9777 10.3521 12.3121 10.3462 12.5992 10.4868C12.8849 10.6245 13.088 10.8911 13.1456 11.2036C13.504 13.1284 14.7433 16.2886 16.7296 20.3403C16.903 20.6948 16.8522 21.1177 16.5997 21.4204C16.4069 21.6528 16.1237 21.7808 15.8317 21.7808ZM8.36096 15.354C9.96057 16.9165 11.8375 18.1646 13.8966 19.0415C12.7614 16.5757 11.9601 14.5259 11.5016 12.9126C10.3546 13.6187 9.30334 14.436 8.36096 15.354Z" fill="white"/>
<path d="M20.958 14.5874C18.5537 14.5874 16.5977 12.6313 16.5977 10.2271C16.5977 7.82275 18.5537 5.8667 20.958 5.8667C23.3623 5.8667 25.3184 7.82275 25.3184 10.2271C25.3184 12.6313 23.3623 14.5874 20.958 14.5874ZM20.958 7.8667C19.6567 7.8667 18.5977 8.92529 18.5977 10.2271C18.5977 11.5288 19.6567 12.5874 20.958 12.5874C22.2593 12.5874 23.3184 11.5288 23.3184 10.2271C23.3184 8.92529 22.2593 7.8667 20.958 7.8667Z" fill="white"/>
</svg>
