<svg width="138" height="102" viewBox="0 0 138 102" fill="none" xmlns="http://www.w3.org/2000/svg">
<path d="M77.2715 94.2801C77.8474 94.2801 78.4057 94.2085 78.939 94.0742C78.6491 93.7564 78.3884 93.4138 78.16 93.0506C77.8608 93.3265 77.5557 93.4566 77.2715 93.4566C76.7224 93.4566 76.0955 92.9707 75.5815 91.8853C75.3858 91.4631 75.2297 91.0243 75.1151 90.5742H77.4922C77.5122 90.2909 77.5624 90.015 77.6393 89.7507H74.9362C74.8201 89.0704 74.7625 88.3817 74.7641 87.6918C74.7641 86.9646 74.8251 86.2712 74.9362 85.633H79.6068C79.6946 86.1378 79.7514 86.678 79.7715 87.2422C80.0346 87.1183 80.311 87.0241 80.5956 86.9613C80.5717 86.5164 80.5242 86.073 80.4535 85.633H82.7378C82.9334 86.1353 83.0588 86.6706 83.1039 87.2298C83.4123 87.3723 83.699 87.5526 83.9573 87.7659L83.9581 87.6918C83.9581 86.3888 83.5659 85.115 82.8312 84.0316C82.0965 82.9481 81.0522 82.1037 79.8304 81.605C78.6086 81.1064 77.2641 80.9759 75.967 81.2301C74.67 81.4843 73.4785 82.1118 72.5434 83.0332C71.6083 83.9546 70.9714 85.1285 70.7134 86.4065C70.4554 87.6845 70.5879 89.0092 71.0939 90.213C71.6 91.4169 72.4571 92.4459 73.5567 93.1698C74.6563 93.8937 75.9491 94.2801 77.2715 94.2801ZM77.2715 81.9271C77.8207 81.9271 78.4475 82.4129 78.9616 83.4984C79.1429 83.8821 79.3009 84.3235 79.4288 84.8094H75.1143C75.2422 84.3235 75.4001 83.8821 75.5823 83.4984C76.0947 82.4129 76.7216 81.9271 77.2715 81.9271ZM74.8242 83.15C74.5774 83.6827 74.3862 84.2387 74.2534 84.8094H72.2031C72.9087 83.6078 74.0296 82.6964 75.3608 82.2416C75.1594 82.5134 74.9797 82.8214 74.8242 83.15ZM74.0887 85.633C73.9806 86.3141 73.9269 87.0025 73.9282 87.6918C73.9282 88.4083 73.9842 89.1017 74.0896 89.7507H71.8053C71.5504 89.0933 71.42 88.3955 71.4208 87.6918C71.4208 86.9671 71.557 86.272 71.8053 85.633H74.0896H74.0887ZM74.2534 90.5742C74.4005 91.1861 74.5936 91.7453 74.8242 92.2336C74.9797 92.5622 75.1594 92.8702 75.3608 93.142C74.0296 92.6873 72.9087 91.7758 72.2031 90.5742H74.2542H74.2534ZM79.1822 82.2416C80.5135 82.6963 81.6344 83.6077 82.3399 84.8094H80.2888C80.156 84.2387 79.9648 83.6827 79.718 83.15C79.5692 82.8309 79.3895 82.5267 79.1814 82.2416H79.1822ZM81.4506 87.6918C83.1816 87.6918 84.585 89.1141 84.585 90.8682C84.585 92.1834 83.5962 93.5612 81.6596 95.0328C81.5999 95.0786 81.5263 95.1035 81.4506 95.1035C81.3749 95.1035 81.3014 95.0786 81.2417 95.0328C79.3051 93.5612 78.3163 92.1834 78.3163 90.8682C78.3163 89.1141 79.7196 87.6918 81.4506 87.6918ZM81.4506 89.8091C80.8739 89.8091 80.4059 90.2835 80.4059 90.8682C80.4059 91.4529 80.8739 91.9273 81.4506 91.9273C82.0274 91.9273 82.4954 91.4529 82.4954 90.8682C82.4954 90.2835 82.0274 89.8091 81.4506 89.8091Z" fill="#370D6F"/>
<path d="M100.826 47.3359H62.0279C60.2413 47.3359 58.7983 46.0156 58.7983 44.3809C58.7983 43.5635 59.159 42.8248 59.7431 42.2903C60.3358 41.7559 61.1432 41.4258 62.0279 41.4258H74.9635C76.7501 41.4258 78.1931 40.1055 78.1931 38.4708C78.1931 36.8361 76.7501 35.5157 74.9635 35.5157H68.4957C66.7091 35.5157 65.2661 34.1954 65.2661 32.5607C65.2661 31.7433 65.6269 31.0045 66.2109 30.4701C66.8036 29.9357 67.611 29.6056 68.4957 29.6056H81.4313C83.2179 29.6056 84.6609 28.2853 84.6609 26.6505C84.6609 25.0158 83.2179 23.6955 81.4313 23.6955H74.9635C73.1769 23.6955 71.7339 22.3751 71.7339 20.7404C71.7339 19.9231 72.0947 19.1843 72.6787 18.6499C73.2714 18.1154 74.0788 17.7854 74.9635 17.7854H94.3584C96.145 17.7854 97.588 16.465 97.588 14.8303C97.588 13.1956 96.145 11.8752 94.3584 11.8752H74.9635C74.2077 11.8752 73.5119 11.6316 72.9536 11.2308C72.2063 10.6885 71.7339 9.85543 71.7339 8.91233C71.7339 8.09497 72.0947 7.35621 72.6787 6.82178C73.2456 6.31094 74.0101 5.98871 74.8605 5.96513V5.91798H113.762C115.548 5.91798 116.991 4.59763 116.991 2.96292C116.991 1.3282 115.548 0.0078592 113.762 0.0078592H68.4957C68.4785 0.0078592 68.4699 0.0078592 68.4528 0.0157184C68.4356 0 68.4184 0 68.3926 0H29.6974C24.3376 0 20 3.96889 20 8.87303C20 13.7772 24.3376 17.7461 29.6974 17.7461H44.9436L23.8652 62.7557C22.0357 66.6617 25.1708 71 29.8091 71H68.5043C72.7217 71 76.3035 68.5322 77.6348 65.082H94.367C96.1536 65.082 97.5966 63.7617 97.5966 62.127C97.5966 60.4922 96.1536 59.1719 94.367 59.1719H55.5687C53.7821 59.1719 52.3391 57.8516 52.3391 56.2168C52.3391 55.3995 52.6998 54.6607 53.2839 54.1263C53.8766 53.5919 54.684 53.2618 55.5687 53.2618H100.835C102.621 53.2618 104.064 51.9414 104.064 50.3067C104.064 48.6563 102.613 47.3359 100.826 47.3359ZM94.367 23.664C92.5804 23.664 91.1374 24.9844 91.1374 26.6191C91.1374 28.2538 92.5804 29.5742 94.367 29.5742H100.835C102.621 29.5742 104.064 28.2538 104.064 26.6191C104.064 24.9844 102.621 23.664 100.835 23.664H94.367ZM113.762 59.164H107.294C105.507 59.164 104.064 60.4844 104.064 62.1191C104.064 63.7538 105.507 65.0742 107.294 65.0742H113.762C115.548 65.0742 116.991 63.7538 116.991 62.1191C117 60.4922 115.548 59.164 113.762 59.164Z" fill="url(#paint0_linear_610_3)"/>
<path d="M44.299 8.87304H59.5452L38.4668 53.8748C36.6372 57.7808 39.7724 62.1191 44.4106 62.1191H83.1059C85.9747 62.1191 88.5429 60.9717 90.3209 59.164H85.5968H55.5683C53.7817 59.164 52.3387 57.8437 52.3387 56.209C52.3387 55.3916 52.6994 54.6529 53.2835 54.1184C53.8762 53.584 54.6836 53.2539 55.5683 53.2539H100.834C102.621 53.2539 104.064 51.9336 104.064 50.2989C104.064 48.6642 102.621 47.3438 100.834 47.3438H62.0275C60.2409 47.3438 58.7979 46.0235 58.7979 44.3888C58.7979 43.5714 59.1586 42.8326 59.7427 42.2982C60.3354 41.7638 61.1428 41.4337 62.0275 41.4337H74.9631C76.7497 41.4337 78.1927 40.1133 78.1927 38.4786C78.1927 36.8439 76.7497 35.5236 74.9631 35.5236H68.4953C66.7087 35.5236 65.2657 34.2032 65.2657 32.5685C65.2657 31.7512 65.6264 31.0124 66.2105 30.478C66.8032 29.9435 67.6106 29.6135 68.4953 29.6135H81.4309C83.2175 29.6135 84.6605 28.2931 84.6605 26.6584C84.6605 25.0237 83.2175 23.7033 81.4309 23.7033H74.9631C73.1765 23.7033 71.7335 22.383 71.7335 20.7483C71.7335 19.9309 72.0943 19.1922 72.6783 18.6577C73.271 18.1233 74.0784 17.7932 74.9631 17.7932H94.3579C96.1445 17.7932 97.5876 16.4729 97.5876 14.8382C97.5876 13.2035 96.1445 11.8831 94.3579 11.8831H74.9631C74.2072 11.8831 73.5115 11.6395 72.9532 11.2387C72.2059 10.6964 71.7335 9.8633 71.7335 8.92019C71.7335 8.10283 72.0943 7.36407 72.6783 6.82964C73.2452 6.3188 74.0097 5.99657 74.86 5.97299V5.91798H113.761C115.548 5.91798 116.991 4.59763 116.991 2.96292C116.991 1.3282 115.548 0.0078592 113.761 0.0078592H68.4953C68.4781 0.0078592 68.4695 0.0078592 68.4524 0.0157184C68.4352 0 68.418 0 68.3922 0H59.047H34.6016C34.6016 4.90414 38.9392 8.87304 44.299 8.87304Z" fill="url(#paint1_linear_610_3)"/>
<path d="M94.3663 23.6641C92.5797 23.6641 91.1367 24.9844 91.1367 26.6191C91.1367 28.2538 92.5797 29.5742 94.3663 29.5742H100.834C102.621 29.5742 104.064 28.2538 104.064 26.6191C104.064 24.9844 102.621 23.6641 100.834 23.6641H94.3663Z" fill="url(#paint2_linear_610_3)"/>
<path d="M15.124 81.5283C15.4948 81.5283 15.6802 81.6584 15.6802 81.9185C15.6802 82.2505 15.4229 82.7236 14.9082 83.3379L14.7505 83.5205C14.2967 84.0739 13.7212 84.453 13.0239 84.6577C12.7804 84.7297 12.5812 84.7656 12.4263 84.7656C12.2271 84.7656 12.0721 84.7601 11.9614 84.749C11.8507 84.738 11.6903 84.7241 11.48 84.7075L10.7744 84.6494C10.1768 84.6107 9.5791 84.5747 8.98145 84.5415C7.88021 85.6206 6.94499 86.7965 6.17578 88.0693C5.89355 88.5397 5.75244 88.8302 5.75244 88.9409C5.75244 89.4722 5.92952 89.8485 6.28369 90.0698C6.64339 90.2912 7.12484 90.4019 7.72803 90.4019C8.33675 90.4019 8.85417 90.3714 9.28027 90.3105C9.71191 90.2441 10.1159 90.1639 10.4922 90.0698C10.874 89.9702 11.2254 89.8623 11.5464 89.7461C11.8729 89.6243 12.1579 89.5109 12.4014 89.4058C12.6504 89.3006 12.8551 89.2065 13.0156 89.1235L13.3394 88.9575C13.5109 88.9132 13.6714 88.9326 13.8208 89.0156C14.0864 89.1761 14.2192 89.3587 14.2192 89.5635C14.2192 89.7682 14.1003 89.973 13.8623 90.1777C11.9421 91.8324 9.75895 92.8368 7.31299 93.1909C6.51611 93.3071 5.76074 93.3652 5.04688 93.3652C4.33301 93.3652 3.77409 93.3265 3.37012 93.249C2.97168 93.1771 2.63688 93.0775 2.36572 92.9502C2.1001 92.8229 1.88981 92.6763 1.73486 92.5103C1.57992 92.3387 1.4637 92.1589 1.38623 91.9707C1.27002 91.6885 1.21191 91.3592 1.21191 90.9829C1.21191 90.6011 1.26449 90.2884 1.36963 90.0449C1.48031 89.8014 1.61589 89.5662 1.77637 89.3394C1.93685 89.1125 2.11117 88.8883 2.29932 88.667C2.493 88.4456 2.64795 88.252 2.76416 88.0859C2.8859 87.9199 3.02148 87.7539 3.1709 87.5879C4.02311 86.7025 4.59587 86.1159 4.88916 85.8281L6.31689 84.4668C5.44255 84.4668 4.83382 84.5138 4.49072 84.6079C4.15316 84.6965 3.86263 84.7795 3.61914 84.8569C3.38118 84.9344 3.1377 85.0174 2.88867 85.106C2.63965 85.1945 2.41276 85.2803 2.20801 85.3633C1.73763 85.5514 1.46094 85.6815 1.37793 85.7534C1.29492 85.8198 1.19255 85.853 1.0708 85.853C0.949056 85.853 0.835612 85.8337 0.730469 85.7949C0.630859 85.7507 0.539551 85.6898 0.456543 85.6123C0.273926 85.4518 0.182617 85.2747 0.182617 85.0811C0.182617 84.8818 0.246257 84.6882 0.373535 84.5C0.506348 84.3118 0.708333 84.0988 0.979492 83.8608C1.25065 83.6174 1.53011 83.3822 1.81787 83.1553L2.60645 82.5327C2.84993 82.339 3.01318 82.1813 3.09619 82.0596C3.33968 81.7054 3.9235 81.4674 4.84766 81.3457C5.11328 81.307 5.38444 81.2876 5.66113 81.2876C5.94336 81.2876 6.3252 81.3097 6.80664 81.354C7.29362 81.3983 7.87467 81.4453 8.5498 81.4951C10.3538 81.639 11.6792 81.7109 12.5259 81.7109C13.3781 81.7109 13.8651 81.6999 13.9868 81.6777L14.3604 81.6196C14.7201 81.5588 14.9746 81.5283 15.124 81.5283ZM31.0366 88.3931C30.7267 88.3156 30.0654 88.2769 29.0527 88.2769C28.2282 89.9924 27.6499 91.5225 27.3179 92.8672C27.1297 93.5977 26.4186 93.9629 25.1846 93.9629C24.1663 93.9629 23.5189 93.7249 23.2422 93.249C23.1426 93.0885 23.1038 92.9336 23.126 92.7842C23.1481 92.6292 23.2201 92.43 23.3418 92.1865C23.4635 91.9375 23.6296 91.6304 23.8398 91.2651L24.5703 90.02L25.4668 88.5508L22.1216 88.8247C21.3468 90.1639 20.4891 91.4256 19.5483 92.6099C19.089 93.1688 18.4139 93.4482 17.5229 93.4482C16.8478 93.4482 16.2529 93.3044 15.7383 93.0166C15.4284 92.8451 15.279 92.6901 15.29 92.5518C15.2956 92.3581 15.4062 92.1644 15.6221 91.9707C16.5075 91.196 17.3901 90.2497 18.27 89.1318L17 89.2314C16.3636 89.248 15.9652 89.1097 15.8047 88.8164C15.6774 88.5785 15.6138 88.3073 15.6138 88.0029C15.6138 87.7926 15.6636 87.6183 15.7632 87.48C15.8628 87.3416 15.9735 87.2559 16.0952 87.2227C16.217 87.1895 16.3581 87.1701 16.5186 87.1646L19.9717 86.7412C21.3385 84.5387 22.1105 83.3047 22.2876 83.0391C22.4647 82.7679 22.639 82.541 22.8105 82.3584C23.2367 81.9268 23.6711 81.7109 24.1138 81.7109C24.4237 81.7109 24.7142 81.8354 24.9854 82.0845C25.1071 82.1951 25.168 82.3224 25.168 82.4663C25.168 82.7485 25.013 83.2078 24.7031 83.8442L23.4912 86.3096L27.21 85.8447C28.2503 84.3395 28.967 83.3351 29.3599 82.8315C30.1623 81.8078 30.7212 81.2184 31.0366 81.0635C31.6343 80.7646 32.0687 80.6152 32.3398 80.6152C32.611 80.6152 32.7798 80.6899 32.8462 80.8394C32.9126 80.9888 32.932 81.1437 32.9043 81.3042C32.8822 81.4647 32.8019 81.6694 32.6636 81.9185C32.5308 82.1619 32.3564 82.4635 32.1406 82.8232C32.1406 82.8232 31.59 83.7419 30.4888 85.5791C30.854 85.6123 31.1058 85.7064 31.2441 85.8613C31.4876 86.127 31.6094 86.5475 31.6094 87.123C31.6094 87.5381 31.5568 87.9255 31.4517 88.2852C31.4074 88.3571 31.269 88.3931 31.0366 88.3931ZM34.2656 92.7759C33.8395 92.5877 33.5047 92.3525 33.2612 92.0703C33.0233 91.7881 32.8656 91.5225 32.7881 91.2734C32.6663 90.9027 32.6055 90.5845 32.6055 90.3188C32.6055 90.0532 32.6912 89.7489 32.8628 89.4058C33.0399 89.0627 33.3304 88.7223 33.7344 88.3848C34.6198 87.6488 35.9784 87.0179 37.8101 86.4922C37.2235 86.2432 36.8887 85.8475 36.8057 85.3052C36.7227 84.6854 36.9883 84.1348 37.6025 83.6533C38.737 82.7624 40.9173 82.1592 44.1436 81.8438C45.1396 81.7497 45.8618 81.7026 46.3101 81.7026C46.7638 81.7026 47.0848 81.7746 47.2729 81.9185C47.4666 82.0623 47.5801 82.2782 47.6133 82.5659C47.652 82.8481 47.5994 83.0861 47.4556 83.2798C47.3117 83.4735 47.1069 83.6284 46.8413 83.7446C46.3488 83.9604 45.6764 84.0684 44.8242 84.0684C44.1989 84.0684 43.6289 83.9743 43.1143 83.7861C42.9759 83.7308 42.868 83.6727 42.7905 83.6118C41.6838 83.9549 41.0557 84.3395 40.9062 84.7656C40.862 84.8763 40.8454 84.9787 40.8564 85.0728C40.9062 85.4103 41.1276 85.6593 41.5205 85.8198C41.9134 85.9803 42.5111 86.0827 43.3135 86.127C43.5791 86.1491 43.7756 86.221 43.9028 86.3428C44.0356 86.4645 44.1104 86.5918 44.127 86.7246C44.1491 86.8574 44.1408 86.9626 44.1021 87.04C44.0633 87.112 44.0052 87.1729 43.9277 87.2227C43.7949 87.3112 43.5321 87.3859 43.1392 87.4468C42.7463 87.5076 42.2897 87.5934 41.7695 87.7041C41.2493 87.8092 40.7541 87.9227 40.2837 88.0444C39.8133 88.1662 39.3761 88.2907 38.9722 88.418C38.5737 88.5452 38.2279 88.667 37.9346 88.7832C37.3148 89.0433 37.016 89.2536 37.0381 89.4141C37.0602 89.569 37.1239 89.7046 37.229 89.8208C37.3341 89.937 37.4753 90.0394 37.6523 90.1279C37.9844 90.2829 38.3883 90.3825 38.8643 90.4268C39.3457 90.4655 39.8105 90.4849 40.2588 90.4849C40.7126 90.4849 41.1968 90.4489 41.7114 90.377C42.2316 90.2995 42.7158 90.2026 43.1641 90.0864C43.6178 89.9702 44.0329 89.8485 44.4092 89.7212C44.791 89.5884 45.123 89.4639 45.4053 89.3477L46.0859 89.0654C46.263 88.988 46.4235 88.9492 46.5674 88.9492C46.9492 88.9492 47.165 89.1512 47.2148 89.5552C47.2812 90.103 46.667 90.7201 45.3721 91.4062C43.64 92.3304 41.7253 92.9336 39.6279 93.2158C39.141 93.2822 38.5544 93.3154 37.8682 93.3154C37.1875 93.3154 36.5234 93.2712 35.876 93.1826C35.2285 93.0941 34.6917 92.9585 34.2656 92.7759ZM60.8281 89.6631C61.0439 89.569 61.2985 89.522 61.5918 89.522C61.8851 89.522 62.1286 89.5441 62.3223 89.5884C62.516 89.6326 62.7345 89.6908 62.978 89.7627C63.7196 90.0007 64.2425 90.175 64.5469 90.2856L66.0991 90.8418C66.5474 91.0023 66.8047 91.0825 66.8711 91.0825C67.2197 91.0825 67.6016 90.9829 68.0166 90.7837C68.4316 90.5789 68.8024 90.3631 69.1289 90.1362C69.4609 89.9093 69.6878 89.7765 69.8096 89.7378C69.9313 89.6991 70.0586 89.6797 70.1914 89.6797C70.3242 89.6797 70.4377 89.724 70.5317 89.8125C70.6313 89.8955 70.6729 90.0173 70.6562 90.1777C70.6396 90.3327 70.5926 90.4987 70.5151 90.6758C70.4432 90.8529 70.3491 91.0355 70.2329 91.2236C69.9839 91.6165 69.7404 91.9209 69.5024 92.1367L68.7554 92.7759C67.7261 93.6392 66.6414 94.0708 65.5015 94.0708C65.1916 94.0708 64.6742 93.9546 63.9492 93.7222L61.3843 92.8921C60.283 92.5269 59.5719 92.3442 59.251 92.3442C58.9355 92.3442 58.6257 92.3968 58.3213 92.502C58.0169 92.6016 57.7098 92.7122 57.3999 92.834C57.09 92.9502 56.7718 93.0581 56.4453 93.1577C56.1243 93.2629 55.8421 93.3154 55.5986 93.3154C55.3607 93.3154 55.1808 93.2795 55.0591 93.2075C54.9429 93.1411 54.8377 93.0526 54.7437 92.9419C54.5057 92.6763 54.3978 92.4411 54.4199 92.2363C54.4421 92.026 54.5306 91.8268 54.6855 91.6387C54.8405 91.4505 55.0314 91.2596 55.2583 91.0659C55.4852 90.8722 55.7314 90.6813 55.9971 90.4932C56.2682 90.2995 56.5283 90.1224 56.7773 89.9619L57.8481 89.2979C57.9201 89.2536 58.075 89.154 58.313 88.999L62.6626 86.0273C64.0073 85.0755 64.6797 84.5775 64.6797 84.5332C64.6797 84.4945 64.5745 84.4751 64.3643 84.4751C63.5785 84.4751 62.9089 84.4751 62.3555 84.4751C61.8076 84.4751 61.376 84.4779 61.0605 84.4834H60.1558C59.1541 84.4945 58.5897 84.5249 58.4624 84.5747C58.3351 84.619 58.1857 84.7048 58.0142 84.832L57.4829 85.1973C57.0513 85.4906 56.6916 85.6372 56.4038 85.6372C56.0441 85.6372 55.8145 85.4906 55.7148 85.1973C55.6208 84.9206 55.665 84.6577 55.8477 84.4087C56.0303 84.1541 56.224 83.9328 56.4287 83.7446C56.639 83.5509 56.8714 83.3656 57.126 83.1885C57.3861 83.0114 57.6434 82.8564 57.8979 82.7236C58.4624 82.4248 58.8747 82.2754 59.1348 82.2754C59.3949 82.2754 59.702 82.2671 60.0562 82.2505C60.4159 82.2339 60.8198 82.2145 61.2681 82.1924C61.7218 82.1647 62.2088 82.1315 62.729 82.0928L64.2896 81.9932C64.8153 81.96 65.3271 81.9268 65.8252 81.8936C66.3232 81.8548 66.7798 81.8216 67.1948 81.7939L68.2739 81.7358C68.5728 81.7192 68.7692 81.7109 68.8633 81.7109C68.9629 81.7109 69.0763 81.758 69.2036 81.8521C69.3364 81.9461 69.4637 82.0706 69.5854 82.2256C69.9064 82.6296 70.0475 83.0225 70.0088 83.4043C69.9811 83.7197 69.1483 84.4281 67.5103 85.5293L66.0161 86.5088L62.9614 88.4014L60.8281 89.6631ZM86.4526 92.6514C86.1095 93.0885 85.8273 93.3293 85.606 93.3735C85.3901 93.4233 85.2103 93.4289 85.0664 93.3901C84.9225 93.3514 84.7952 93.2878 84.6846 93.1992C84.4521 93 84.3359 92.7344 84.3359 92.4023C84.3359 92.1589 84.4106 91.9154 84.5601 91.6719C87.7863 86.542 89.5405 83.764 89.8228 83.3379C90.4868 82.3529 90.8714 81.7995 90.9766 81.6777L91.1841 81.4287C91.8039 80.7148 92.609 80.3579 93.5996 80.3579C94.3688 80.3579 94.8945 80.5267 95.1768 80.8643C95.2432 80.9362 95.2764 81.0745 95.2764 81.2793C95.2819 81.484 95.293 81.8105 95.3096 82.2588L95.3511 83.6865C95.3677 84.1901 95.387 84.7048 95.4092 85.2305L95.459 86.7744C95.5033 87.7705 95.542 88.6283 95.5752 89.3477C95.791 88.9658 96.0096 88.5203 96.231 88.0112L96.9365 86.4009C97.5785 84.9621 98.1982 83.8249 98.7959 82.9893C99.1722 82.4525 99.792 82.1841 100.655 82.1841C101.292 82.1841 101.862 82.3224 102.365 82.5991C102.67 82.7651 102.819 82.9118 102.813 83.0391C102.813 83.1553 102.772 83.266 102.689 83.3711L102.515 83.6118C102.122 84.1597 101.734 84.7297 101.353 85.3218L100.24 87.0898C98.6797 89.6686 97.7749 91.1489 97.5259 91.5308C97.2769 91.9126 97.0859 92.181 96.9531 92.3359C96.8258 92.4854 96.6571 92.6126 96.4468 92.7178C96.242 92.8229 96.0068 92.917 95.7412 93C95.1657 93.1826 94.687 93.2739 94.3052 93.2739C93.6632 93.2739 93.2288 93.1826 93.002 93C92.7585 92.7786 92.4154 91.4948 91.9727 89.1484L91.6904 87.5879C91.6019 87.0566 91.5216 86.5282 91.4497 86.0024C91.2671 86.2847 91.0319 86.6195 90.7441 87.0068L88.3037 90.2607L86.4526 92.6514ZM107.462 89.6631C107.678 89.569 107.932 89.522 108.226 89.522C108.519 89.522 108.762 89.5441 108.956 89.5884C109.15 89.6326 109.368 89.6908 109.612 89.7627C110.353 90.0007 110.876 90.175 111.181 90.2856L112.733 90.8418C113.181 91.0023 113.438 91.0825 113.505 91.0825C113.854 91.0825 114.235 90.9829 114.65 90.7837C115.065 90.5789 115.436 90.3631 115.763 90.1362C116.095 89.9093 116.322 89.7765 116.443 89.7378C116.565 89.6991 116.692 89.6797 116.825 89.6797C116.958 89.6797 117.071 89.724 117.166 89.8125C117.265 89.8955 117.307 90.0173 117.29 90.1777C117.273 90.3327 117.226 90.4987 117.149 90.6758C117.077 90.8529 116.983 91.0355 116.867 91.2236C116.618 91.6165 116.374 91.9209 116.136 92.1367L115.389 92.7759C114.36 93.6392 113.275 94.0708 112.135 94.0708C111.825 94.0708 111.308 93.9546 110.583 93.7222L108.018 92.8921C106.917 92.5269 106.206 92.3442 105.885 92.3442C105.569 92.3442 105.259 92.3968 104.955 92.502C104.651 92.6016 104.344 92.7122 104.034 92.834C103.724 92.9502 103.406 93.0581 103.079 93.1577C102.758 93.2629 102.476 93.3154 102.232 93.3154C101.994 93.3154 101.815 93.2795 101.693 93.2075C101.577 93.1411 101.472 93.0526 101.377 92.9419C101.139 92.6763 101.032 92.4411 101.054 92.2363C101.076 92.026 101.164 91.8268 101.319 91.6387C101.474 91.4505 101.665 91.2596 101.892 91.0659C102.119 90.8722 102.365 90.6813 102.631 90.4932C102.902 90.2995 103.162 90.1224 103.411 89.9619L104.482 89.2979C104.554 89.2536 104.709 89.154 104.947 88.999L109.296 86.0273C110.641 85.0755 111.313 84.5775 111.313 84.5332C111.313 84.4945 111.208 84.4751 110.998 84.4751C110.212 84.4751 109.543 84.4751 108.989 84.4751C108.441 84.4751 108.01 84.4779 107.694 84.4834H106.79C105.788 84.4945 105.223 84.5249 105.096 84.5747C104.969 84.619 104.819 84.7048 104.648 84.832L104.117 85.1973C103.685 85.4906 103.325 85.6372 103.038 85.6372C102.678 85.6372 102.448 85.4906 102.349 85.1973C102.255 84.9206 102.299 84.6577 102.481 84.4087C102.664 84.1541 102.858 83.9328 103.062 83.7446C103.273 83.5509 103.505 83.3656 103.76 83.1885C104.02 83.0114 104.277 82.8564 104.532 82.7236C105.096 82.4248 105.508 82.2754 105.769 82.2754C106.029 82.2754 106.336 82.2671 106.69 82.2505C107.05 82.2339 107.454 82.2145 107.902 82.1924C108.356 82.1647 108.843 82.1315 109.363 82.0928L110.923 81.9932C111.449 81.96 111.961 81.9268 112.459 81.8936C112.957 81.8548 113.414 81.8216 113.829 81.7939L114.908 81.7358C115.207 81.7192 115.403 81.7109 115.497 81.7109C115.597 81.7109 115.71 81.758 115.837 81.8521C115.97 81.9461 116.097 82.0706 116.219 82.2256C116.54 82.6296 116.681 83.0225 116.643 83.4043C116.615 83.7197 115.782 84.4281 114.144 85.5293L112.65 86.5088L109.595 88.4014L107.462 89.6631ZM129.318 81.5283C129.589 81.4342 129.891 81.3872 130.223 81.3872C130.56 81.3872 130.898 81.4121 131.235 81.4619C131.578 81.5117 131.938 81.592 132.314 81.7026C132.691 81.8133 133.067 81.9544 133.443 82.126C133.82 82.2975 134.157 82.5023 134.456 82.7402C135.126 83.2715 135.46 83.9023 135.46 84.6328C135.46 85.4961 135.004 86.4424 134.091 87.4717C132.785 88.9437 130.914 90.2552 128.479 91.4062C126.947 92.1257 125.408 92.6348 123.864 92.9336C123.101 93.0775 122.356 93.1494 121.631 93.1494C120.912 93.1494 120.289 93.0526 119.764 92.8589C119.243 92.6597 118.817 92.4134 118.485 92.1201C118.159 91.8268 117.921 91.5114 117.771 91.1738C117.622 90.8363 117.547 90.4793 117.547 90.103C117.547 89.7267 117.658 89.2868 117.879 88.7832C118.106 88.2796 118.397 87.7816 118.751 87.2891C119.111 86.791 119.512 86.3096 119.955 85.8447C120.403 85.3743 120.848 84.9399 121.291 84.5415C122.055 83.8608 122.788 83.277 123.491 82.79C124.199 82.2975 124.797 81.9102 125.284 81.6279C125.771 81.3457 126.177 81.1299 126.504 80.9805C127.057 80.7204 127.395 80.5903 127.517 80.5903C127.638 80.5903 127.774 80.6263 127.923 80.6982C128.078 80.7702 128.247 80.856 128.43 80.9556C128.883 81.2101 129.18 81.401 129.318 81.5283ZM121.59 90.709C121.689 90.7145 121.875 90.7173 122.146 90.7173C122.417 90.7173 122.81 90.6481 123.325 90.5098C123.839 90.3714 124.365 90.186 124.902 89.9536C125.439 89.7157 125.975 89.4417 126.512 89.1318C127.055 88.8164 127.572 88.4871 128.064 88.144C128.557 87.8009 129.016 87.4523 129.442 87.0981C129.874 86.7384 130.248 86.3926 130.563 86.0605C131.238 85.3577 131.576 84.8237 131.576 84.4585C131.576 84.0822 131.349 83.8027 130.895 83.6201C130.591 83.4928 130.264 83.4292 129.916 83.4292C129.334 83.4292 128.856 83.479 128.479 83.5786C126.864 84.3368 125.289 85.3273 123.756 86.5503C122.661 87.4246 121.878 88.252 121.407 89.0322C121.164 89.4362 121.042 89.8125 121.042 90.1611C121.042 90.5042 121.225 90.6868 121.59 90.709Z" fill="#370D6F"/>
<defs>
<linearGradient id="paint0_linear_610_3" x1="43.1127" y1="-8.46129" x2="89.0912" y2="78.5749" gradientUnits="userSpaceOnUse">
<stop stop-color="#AA5DF9"/>
<stop offset="0.1289" stop-color="#943EED"/>
<stop offset="0.3654" stop-color="#8E2BED"/>
<stop offset="0.681" stop-color="#9678F0"/>
<stop offset="0.6898" stop-color="#9776F0"/>
<stop offset="0.7642" stop-color="#8A6AF3"/>
<stop offset="0.9002" stop-color="#6A29AD"/>
<stop offset="1" stop-color="#9E44F9"/>
</linearGradient>
<linearGradient id="paint1_linear_610_3" x1="52.5643" y1="-9.48943" x2="89.3691" y2="60.1812" gradientUnits="userSpaceOnUse">
<stop stop-color="#DA2FFB"/>
<stop offset="0.494792" stop-color="#EF31FB"/>
<stop offset="1" stop-color="#C63BF0"/>
</linearGradient>
<linearGradient id="paint2_linear_610_3" x1="95.1706" y1="22.7813" x2="99.4039" y2="30.7948" gradientUnits="userSpaceOnUse">
<stop stop-color="#EB7BF2"/>
<stop offset="1" stop-color="#DD36F6"/>
</linearGradient>
</defs>
</svg>
